{
  "accessors": [
    {
      "bufferView": 2,
      "componentType": 5126,
      "count": 1028,
      "max": [35, 26.706050872802734, 125.29872894287109],
      "min": [-35, -26.706050872802734, 0],
      "type": "VEC3"
    },
    {
      "bufferView": 2,
      "byteOffset": 12336,
      "componentType": 5126,
      "count": 1028,
      "max": [1, 1, 1],
      "min": [-1, -1, -1],
      "type": "VEC3"
    },
    {
      "bufferView": 1,
      "componentType": 5126,
      "count": 1028,
      "max": [1.0740100145339966, 1.0185799598693848],
      "min": [0, 0],
      "type": "VEC2"
    },
    {
      "bufferView": 0,
      "componentType": 5125,
      "count": 2256,
      "max": [1027],
      "min": [0],
      "type": "SCALAR"
    },
    {
      "bufferView": 2,
      "byteOffset": 24672,
      "componentType": 5126,
      "count": 142,
      "max": [17.5, 24.077180862426758, 107.70871734619141],
      "min": [-17.5, 20.029270172119141, 100.70871734619141],
      "type": "VEC3"
    },
    {
      "bufferView": 2,
      "byteOffset": 26376,
      "componentType": 5126,
      "count": 142,
      "max": [1, 1, 1],
      "min": [-1, -1, -1],
      "type": "VEC3"
    },
    {
      "bufferView": 1,
      "byteOffset": 8224,
      "componentType": 5126,
      "count": 142,
      "max": [1, 1],
      "min": [0, 0],
      "type": "VEC2"
    },
    {
      "bufferView": 0,
      "byteOffset": 9024,
      "componentType": 5125,
      "count": 288,
      "max": [141],
      "min": [0],
      "type": "SCALAR"
    }
  ],
  "asset": {
    "extras": {
      "author": "r.hessens (https://sketchfab.com/r.hessens)",
      "license": "CC-BY-4.0 (http://creativecommons.org/licenses/by/4.0/)",
      "source": "https://sketchfab.com/3d-models/mailbox-54e910863c954b60b726ffeb55cf90a8",
      "title": "Mailbox"
    },
    "generator": "Sketchfab-8.47.0",
    "version": "2.0"
  },
  "bufferViews": [
    {
      "buffer": 0,
      "byteLength": 10176,
      "byteOffset": 0,
      "name": "floatBufferViews",
      "target": 34963
    },
    {
      "buffer": 0,
      "byteLength": 9360,
      "byteOffset": 10176,
      "byteStride": 8,
      "name": "floatBufferViews",
      "target": 34962
    },
    {
      "buffer": 0,
      "byteLength": 28080,
      "byteOffset": 19536,
      "byteStride": 12,
      "name": "floatBufferViews",
      "target": 34962
    }
  ],
  "buffers": [
    {
      "byteLength": 47616,
      "uri": "mailbox.bin"
    }
  ],
  "images": [
    {
      "uri": "Material_baseColor.jpeg"
    }
  ],
  "materials": [
    {
      "doubleSided": true,
      "name": "Material",
      "pbrMetallicRoughness": {
        "baseColorFactor": [1, 1, 1, 1],
        "baseColorTexture": {
          "index": 0,
          "texCoord": 0
        },
        "metallicFactor": 0.0393125057,
        "roughnessFactor": 0.60806250569999998
      }
    },
    {
      "doubleSided": true,
      "name": "Material.001",
      "pbrMetallicRoughness": {
        "baseColorFactor": [
          0.39218956587185461,
          0.39218956587185461,
          0.39218956587185461,
          1
        ],
        "metallicFactor": 1,
        "roughnessFactor": 0.13547385829548425
      }
    }
  ],
  "meshes": [
    {
      "name": "Cube.001_0",
      "primitives": [
        {
          "attributes": {
            "NORMAL": 1,
            "POSITION": 0,
            "TEXCOORD_0": 2
          },
          "indices": 3,
          "material": 0,
          "mode": 4
        }
      ]
    },
    {
      "name": "Cube.001_1",
      "primitives": [
        {
          "attributes": {
            "NORMAL": 5,
            "POSITION": 4,
            "TEXCOORD_0": 6
          },
          "indices": 7,
          "material": 1,
          "mode": 4
        }
      ]
    }
  ],
  "nodes": [
    {
      "children": [1],
      "name": "RootNode (gltf orientation matrix)",
      "rotation": [-0.70710678118654746, -0, -0, 0.70710678118654757]
    },
    {
      "children": [2],
      "name": "RootNode (model correction matrix)"
    },
    {
      "children": [3],
      "name": "Root"
    },
    {
      "children": [4, 5],
      "name": "Cube.001"
    },
    {
      "mesh": 0,
      "name": "Cube.001_0"
    },
    {
      "mesh": 1,
      "name": "Cube.001_1"
    }
  ],
  "samplers": [
    {
      "magFilter": 9729,
      "minFilter": 9987,
      "wrapS": 10497,
      "wrapT": 10497
    }
  ],
  "scene": 0,
  "scenes": [
    {
      "name": "OSG_Scene",
      "nodes": [0]
    }
  ],
  "textures": [
    {
      "sampler": 0,
      "source": 0
    }
  ]
}
